<?xml version="1.0" encoding="UTF-8"?>
<svg version="1.1" xmlns="http://www.w3.org/2000/svg" width="512" height="512">
<path d="M0 0 C7.10197264 6.82259897 7.10197264 6.82259897 8.375 12.1875 C10.13563147 15.7711926 10.13563147 15.7711926 13.44921875 16.21484375 C15.91582517 16.49483691 18.38481823 16.75437202 20.85546875 16.99609375 C29.42524385 18.18098227 36.77795367 23.12716299 42.5 29.5 C48.79924086 38.44492201 51.66280334 46.4919898 51.5 57.5 C50.88832186 60.4916622 50.09883503 63.27920133 49.09375 66.16015625 C48.4468507 68.7094502 48.6393742 70.04834888 49.5 72.5 C50.26183594 72.64695312 51.02367187 72.79390625 51.80859375 72.9453125 C59.19190004 74.54917679 64.64810745 76.71109168 70.5 81.5 C71.18835938 82.05300781 71.87671875 82.60601562 72.5859375 83.17578125 C80.38489738 90.15301164 86.08045291 100.82163566 86.73828125 111.29296875 C87.0198153 122.44526784 85.90372572 130.19569347 78.347229 138.8298645 C75.00931256 141.84777551 71.08004077 143.05935546 66.8671875 144.46484375 C65.95292999 144.78787979 65.03867249 145.11091583 64.09671021 145.44374084 C62.17558092 146.11820254 60.25082027 146.78240039 58.32275391 147.43676758 C55.36985875 148.4392454 52.42876233 149.47150171 49.48828125 150.50976562 C47.61519103 151.16320293 45.74151199 151.81495531 43.8671875 152.46484375 C42.54834061 152.92406471 42.54834061 152.92406471 41.20285034 153.39256287 C40.38164703 153.6702803 39.56044373 153.94799774 38.71435547 154.23413086 C37.63563675 154.60217079 37.63563675 154.60217079 36.53512573 154.97764587 C34.5 155.5 34.5 155.5 30.5 155.5 C28.52 147.91 26.54 140.32 24.5 132.5 C26.15 131.18 27.8 129.86 29.5 128.5 C31.32063934 125.43801565 31.50264709 123.64558973 31.4375 120.0625 C30.08212585 114.91207823 27.80520405 111.93296468 23.1875 109.0625 C18.92861256 108.17110495 14.67736917 108.64717384 10.59326172 110.24682617 C7.32781028 110.64177289 5.73248801 109.06708205 3.0703125 107.23828125 C2.02746094 106.53123047 0.98460937 105.82417969 -0.08984375 105.09570312 C-1.18512017 104.33495831 -2.28017053 103.57388792 -3.375 102.8125 C-4.45136719 102.07837891 -5.52773438 101.34425781 -6.63671875 100.58789062 C-8.65480331 99.21056658 -10.66936517 97.82805647 -12.67919922 96.4387207 C-15.49953356 94.40797076 -15.49953356 94.40797076 -18.80395508 92.82861328 C-21.73272947 90.29898817 -21.92131353 89.97081341 -22.29223633 86.36157227 C-22.3385081 84.68043462 -22.34963642 82.99808842 -22.33203125 81.31640625 C-22.3441993 79.97762672 -22.3441993 79.97762672 -22.35661316 78.61180115 C-22.36506807 76.72647875 -22.35822126 74.84103424 -22.3371582 72.95581055 C-22.31260025 70.07426242 -22.35722571 67.1994454 -22.40820312 64.31835938 C-22.4078326 62.48436938 -22.40340968 60.6503748 -22.39453125 58.81640625 C-22.42049126 57.52870079 -22.42049126 57.52870079 -22.44697571 56.21498108 C-22.30975145 50.33216519 -22.30975145 50.33216519 -19.93441772 47.89108276 C-18.0378418 46.55834961 -18.0378418 46.55834961 -16.14628601 45.48594666 C-14.29075069 44.53454487 -14.29075069 44.53454487 -13 42.25 C-12.25860823 38.17234526 -12.35564636 34.49799498 -13.5 30.5 C-15.69823815 27.79447612 -17.39556667 26.05221667 -20.5 24.5 C-25.02589985 24.08345701 -29.16641891 23.98926682 -33.4375 25.625 C-37.09374137 28.94885579 -38.33009043 32.14072341 -38.9375 37 C-38.4043675 41.26506 -37.30168958 43.25593838 -34.5 46.5 C-32.52510291 47.54870466 -30.52699591 48.55591971 -28.5 49.5 C-28.57968018 50.7595752 -28.65936035 52.01915039 -28.74145508 53.31689453 C-30.95629583 75.74780847 -30.95629583 75.74780847 -25.56884766 96.82910156 C-20.85995263 101.54653235 -15.24359655 104.15015922 -9.06591797 106.48681641 C-4.01503468 108.48121847 0.68899789 111.62767142 4.5 115.5 C5 119.0625 5 119.0625 4.5 122.5 C6.00761646 127.02284937 7.19614783 130.22852247 11.5 132.5 C12.63050781 132.6340625 13.76101563 132.768125 14.92578125 132.90625 C18.5 134.5 18.5 134.5 19.63134766 136.61010742 C20.55705554 139.44864872 21.27575281 142.27618729 21.9375 145.1875 C22.31938477 146.65993164 22.31938477 146.65993164 22.70898438 148.16210938 C26.21084889 162.23564034 21.80159432 171.64720893 16.40673828 184.63354492 C15.47235386 186.91112723 14.56287891 189.19909563 13.67919922 191.49682617 C5.94880524 211.58748242 5.94880524 211.58748242 -0.6484375 215.36279297 C-5.86046896 217.64208401 -10.7992142 218.5 -16.5 218.5 C-17.87482707 216.86739286 -19.20647667 215.19774938 -20.5 213.5 C-24.6921911 210.91746877 -28.70613973 210.8258634 -33.5 211.5 C-38.42998788 213.96499394 -39.56623369 215.61038948 -42.5 220.5 C-54.05 220.5 -65.6 220.5 -77.5 220.5 C-77.5 190.47 -77.5 160.44 -77.5 129.5 C-68.59 129.5 -59.68 129.5 -50.5 129.5 C-49.18 131.48 -47.86 133.46 -46.5 135.5 C-42.03026851 138.16464762 -38.48259874 139.0331885 -33.4296875 138.1484375 C-29.98738489 136.99171233 -28.02989881 135.09160366 -25.5 132.5 C-24.25473521 128.76420563 -23.84828783 125.37365997 -24.5 121.5 C-26.2285989 118.22211745 -28.62475718 116.05918291 -31.75 114.0625 C-36.44222439 113.10272683 -41.14179706 113.14194966 -45.37890625 115.58203125 C-48.05155237 117.71370803 -49.41098847 119.23296542 -50.5 122.5 C-59.41 122.5 -68.32 122.5 -77.5 122.5 C-77.59050837 108.85203413 -77.66383591 95.20426887 -77.70724869 81.55607033 C-77.72808869 75.21809326 -77.75634131 68.88033286 -77.80175781 62.54248047 C-77.84534271 56.42165381 -77.86916407 50.30103507 -77.87950897 44.18006516 C-77.8868776 41.84936629 -77.90126669 39.51867831 -77.92292023 37.18806839 C-77.95212152 33.91370649 -77.95594892 30.64019463 -77.95410156 27.36572266 C-77.96848267 26.41049713 -77.98286377 25.45527161 -77.99768066 24.47109985 C-77.94883197 16.42555893 -75.77446699 9.97859657 -71.375 3.25 C-53.49893177 -13.84884787 -19.22163254 -16.33838766 0 0 Z " fill="#7234E3" transform="translate(340.5,61.5)"/>
<path d="M0 0 C6.93490866 5.26917079 11.14636906 11.8589757 12.36225128 20.60603714 C12.48738169 23.36713319 12.49570815 26.10211841 12.45410156 28.86572266 C12.45468567 29.9010614 12.45526978 30.93640015 12.45587158 32.00311279 C12.45310761 35.39044936 12.42209507 38.77688161 12.390625 42.1640625 C12.38315663 44.52631144 12.37746651 46.88856661 12.37347412 49.25082397 C12.35826492 55.44213221 12.31902351 61.63305995 12.2746582 67.82421875 C12.23360377 74.15229141 12.21544141 80.48042606 12.1953125 86.80859375 C12.15252487 99.20589555 12.08433065 111.60291602 12 124 C7.5838301 124.17411103 3.16853997 124.28079762 -1.25 124.375 C-2.50425781 124.42527344 -3.75851563 124.47554687 -5.05078125 124.52734375 C-8.46608118 124.58213466 -11.6320751 124.57598236 -15 124 C-17.69140625 121.09765625 -17.69140625 121.09765625 -19 118 C-23.29591571 114.90294449 -26.7306072 114.58365547 -31.8125 115.34765625 C-35.43774881 116.42875723 -37.37161213 118.30590243 -40 121 C-41.59671189 124.19342379 -41.37418163 127.52545631 -41 131 C-39.36919208 134.66931783 -37.54566411 137.0834248 -34 139 C-28.0096202 140.37484126 -24.4566472 140.25300121 -19 137 C-17.02 134.03 -17.02 134.03 -15 131 C-6.09 131 2.82 131 12 131 C12 161.03 12 191.06 12 222 C0.45 222 -11.1 222 -23 222 C-24.65 219.69 -26.3 217.38 -28 215 C-31.94924414 212.54506445 -36.45056942 212.26105139 -41 213 C-44.75212276 215.01502889 -46.63644095 216.45466142 -49 220 C-51.4195758 219.83119239 -53.62308262 219.4606258 -56 219 C-56.94617188 218.8956665 -57.89234375 218.79133301 -58.8671875 218.68383789 C-64.0255427 217.53574126 -67.51822429 216.12934736 -70.55093384 211.77127075 C-73.87324329 205.77094225 -76.43987669 199.44529162 -78.95288086 193.07226562 C-80.3129185 189.62393891 -81.734353 186.20654599 -83.16992188 182.7890625 C-84.07137235 180.60306986 -84.96928342 178.41561358 -85.86328125 176.2265625 C-86.28184891 175.20656158 -86.70041656 174.18656067 -87.13166809 173.13565063 C-90.88226109 163.57920575 -90.01909728 156.52480703 -87.5625 146.75 C-87.35173828 145.75742188 -87.14097656 144.76484375 -86.92382812 143.7421875 C-86.19720788 140.88221022 -85.50563184 138.54107296 -84 136 C-81.67956837 134.65844264 -79.71280167 134.05757438 -77.08764648 133.55297852 C-74.63287262 133.10843615 -74.63287262 133.10843615 -72.5 130.1875 C-70.99523625 126.98987704 -70.37192461 124.49609129 -70 121 C-69.67270981 117.93097385 -69.45869253 116.45011176 -67.22509766 114.25830078 C-66.46245605 113.74251465 -65.69981445 113.22672852 -64.9140625 112.6953125 C-64.06457031 112.11136719 -63.21507812 111.52742188 -62.33984375 110.92578125 C-61.44394531 110.33152344 -60.54804688 109.73726563 -59.625 109.125 C-58.76777344 108.53847656 -57.91054687 107.95195312 -57.02734375 107.34765625 C-56.16496094 106.76113281 -55.30257812 106.17460937 -54.4140625 105.5703125 C-53.53951416 104.96074707 -52.66496582 104.35118164 -51.76391602 103.72314453 C-49 102 -49 102 -45.90600586 100.77294922 C-42.34962733 99.20400087 -40.4198145 98.07241762 -38 95 C-36.1962122 87.87817646 -37.0046907 80.14345756 -37.3125 72.875 C-37.42492911 69.83435838 -37.52058017 66.79730911 -37.56718445 63.75491333 C-37.59731538 61.86736673 -37.66558786 59.9799435 -37.77668762 58.09542847 C-37.82538013 55.49876907 -37.79331162 53.47583521 -37 51 C-35.07361384 49.21055978 -33.24192345 48.11255818 -30.88102722 46.96658325 C-28.79497068 46.08084371 -28.79497068 46.08084371 -27.4375 43.75 C-26.78885281 39.67278906 -26.85908689 35.98597492 -28 32 C-30.66733285 28.71712881 -32.85878432 26.23491755 -37.171875 25.76171875 C-42.97794679 25.59457426 -46.48854613 25.93969152 -51 30 C-53.34833356 32.98878817 -53.42117149 36.22206082 -53.31640625 39.97265625 C-52.78426659 43.38229184 -51.21560602 45.42510651 -49 48 C-48.15260254 48.36955811 -47.30520508 48.73911621 -46.43212891 49.11987305 C-44 51 -44 51 -43.09912109 54.88208008 C-42.95965338 56.5088761 -42.85324652 58.13871947 -42.7734375 59.76953125 C-42.7226857 60.63863129 -42.6719339 61.50773132 -42.61964417 62.40316772 C-42.48859126 65.20722065 -42.4197849 68.00578964 -42.375 70.8125 C-42.35664093 71.75517731 -42.33828186 72.69785461 -42.31936646 73.6690979 C-42.20961478 89.03812816 -42.20961478 89.03812816 -45.93798828 95.20605469 C-50.65741297 99.86789087 -56.15700694 102.50881913 -62.30249023 104.8503418 C-65.93257423 106.39745606 -68.92838852 108.56227142 -72.07226562 110.92382812 C-74 112 -74 112 -77.5625 111.3125 C-78.696875 110.879375 -79.83125 110.44625 -81 110 C-85.41617613 109.75849037 -88.85357195 110.53395939 -92.375 113.25 C-96.05521425 117.10546255 -97.03265038 119.17157888 -96.9375 124.5 C-95.82549363 128.65149044 -94.19018569 130.20858752 -91 133 C-89.61465077 135.77069845 -90.38266274 137.05272075 -91.21484375 140.0078125 C-91.48876953 140.99394531 -91.76269531 141.98007813 -92.04492188 142.99609375 C-92.33947266 144.02863281 -92.63402344 145.06117188 -92.9375 146.125 C-93.22818359 147.16527344 -93.51886719 148.20554688 -93.81835938 149.27734375 C-94.53919064 151.85342927 -95.26665682 154.42745359 -96 157 C-101.6247804 156.38753429 -106.63257593 154.97351136 -111.96875 153.12109375 C-112.8078894 152.83073746 -113.64702881 152.54038116 -114.51159668 152.2412262 C-116.27781041 151.62556663 -118.04264599 151.0059406 -119.80615234 150.38256836 C-122.48468734 149.44287206 -125.1732325 148.53697329 -127.86328125 147.63085938 C-138.67771094 143.87910235 -145.17472988 140.78676956 -150.9375 130.5625 C-153.88868081 121.22939069 -153.10310244 109.34307918 -149.26953125 100.4296875 C-143.4980422 89.38394539 -135.06770089 79.64010683 -122.96484375 75.58984375 C-122.31644531 75.39519531 -121.66804688 75.20054687 -121 75 C-120.32066406 74.79503906 -119.64132813 74.59007812 -118.94140625 74.37890625 C-117.29978155 73.89996142 -115.65059913 73.44703726 -114 73 C-114.13277344 72.40832031 -114.26554687 71.81664062 -114.40234375 71.20703125 C-114.57894531 70.41683594 -114.75554687 69.62664062 -114.9375 68.8125 C-115.11152344 68.03519531 -115.28554687 67.25789063 -115.46484375 66.45703125 C-115.64144531 65.64621094 -115.81804687 64.83539063 -116 64 C-116.18820313 63.20078125 -116.37640625 62.4015625 -116.5703125 61.578125 C-118.45295008 50.28229953 -114.73508601 40.84855123 -108.3984375 31.68359375 C-102.37774809 24.1648655 -94.42474757 19.64559085 -85 18 C-83.85144531 18.00966797 -83.85144531 18.00966797 -82.6796875 18.01953125 C-80.17868757 17.99889594 -78.3376803 17.90984859 -76 17 C-74.3486825 14.65125957 -73.33254639 12.2746551 -72.21484375 9.6328125 C-68.33248008 1.21894396 -60.22473371 -2.64504064 -52 -6 C-34.575806 -12.28878644 -15.61910401 -9.72884868 0 0 Z " fill="#7234E3" transform="translate(237,60)"/>
<path d="M0 0 C0.97582031 0.33193359 1.95164063 0.66386719 2.95703125 1.00585938 C3.98828125 1.37646484 5.01953125 1.74707031 6.08203125 2.12890625 C7.14035156 2.49564453 8.19867188 2.86238281 9.2890625 3.24023438 C18.58020942 6.4921358 27.76829564 10.00403832 36.89453125 13.69140625 C35.37771631 17.50486753 33.15000099 19.36392722 29.95703125 21.87890625 C25.34918178 25.52243348 25.34918178 25.52243348 20.86328125 29.3125 C19.4246875 30.55193359 19.4246875 30.55193359 17.95703125 31.81640625 C17.08175781 32.58210938 16.20648438 33.3478125 15.3046875 34.13671875 C12.89453125 35.69140625 12.89453125 35.69140625 10.8828125 35.453125 C10.22667969 35.20175781 9.57054687 34.95039063 8.89453125 34.69140625 C3.83010866 34.18162114 0.00554655 34.1358986 -4.60546875 36.44140625 C-8.42654973 39.88037913 -8.98161993 41.41163515 -9.48046875 46.56640625 C-9.36781943 50.87926591 -7.93164814 53.39419696 -5.10546875 56.69140625 C-0.88466808 59.26442044 3.07653542 59.35651679 7.89453125 58.69140625 C11.27228619 57.45502048 14.08578478 55.91225284 16.12109375 52.83984375 C17.04916597 50.26186537 16.74781349 48.75367253 16.33203125 46.06640625 C16.25635201 42.38515199 16.61157344 41.04375866 18.94921875 38.1328125 C21.33789586 35.96405609 23.76725213 33.90299114 26.31591797 31.92480469 C28.8584645 29.93826818 31.30012762 27.83022113 33.76953125 25.75390625 C37.02081085 23.08009273 40.27099471 20.82634052 43.89453125 18.69140625 C44.14651779 19.29862015 44.39850433 19.90583405 44.65812683 20.53144836 C47.28373992 26.84960569 49.93139225 33.15818878 52.59204102 39.46166992 C53.58210533 41.81540467 54.56652372 44.17152259 55.54516602 46.5300293 C56.95282272 49.91967805 58.38055888 53.3002386 59.8125 56.6796875 C60.46281441 58.26418449 60.46281441 58.26418449 61.12626648 59.88069153 C61.54632462 60.86148178 61.96638275 61.84227203 62.39916992 62.8527832 C62.76112961 63.7166011 63.12308929 64.58041901 63.49601746 65.47041321 C65.96539334 69.39205251 69.87403452 70.84399221 74.14453125 72.234375 C74.91796875 72.50443359 75.69140625 72.77449219 76.48828125 73.05273438 C78.08654464 73.60148877 79.69086206 74.13293061 81.30078125 74.64648438 C86.75657639 76.59693114 89.16097714 78.65164142 91.75097656 83.86791992 C93.48601579 86.63457406 95.64246864 87.52413799 98.70703125 88.41796875 C102.71014241 88.91835765 106.21039295 88.31590818 109.89453125 86.69140625 C112.16938566 84.41655184 113.47259476 82.53527922 114.89453125 79.69140625 C126.77453125 79.69140625 138.65453125 79.69140625 150.89453125 79.69140625 C150.89453125 95.86140625 150.89453125 112.03140625 150.89453125 128.69140625 C140.50393418 133.88670478 130.18495137 139.01208172 119.60058594 143.75854492 C118.1119204 144.43022369 116.62693969 145.1101214 115.14550781 145.79760742 C112.95520039 146.81337798 110.75487019 147.80361976 108.55078125 148.7890625 C107.57244324 149.25131981 107.57244324 149.25131981 106.57434082 149.72291565 C101.5466211 151.91946133 98.07598412 151.77953447 92.89453125 150.69140625 C91.65276123 150.46622314 90.41099121 150.24104004 89.1315918 150.0090332 C61.45312318 144.04721988 61.45312318 144.04721988 55.63671875 135.80078125 C53.16713481 131.24447872 51.46473356 126.46311298 49.88525391 121.53662109 C48.28976358 116.95459934 45.97773562 112.80734578 43.64453125 108.56640625 C42.82865031 107.02645296 42.01351809 105.4861027 41.19921875 103.9453125 C38.24192845 98.4420843 35.11993795 93.04216372 31.89453125 87.69140625 C27.02714799 88.19109959 23.67448051 90.58718356 19.76953125 93.31640625 C18.43244171 94.22157585 17.095201 95.12652217 15.7578125 96.03125 C13.40106006 97.64394782 11.07154343 99.28129938 8.75 100.9453125 C1.12237655 106.22597489 1.12237655 106.22597489 -3.10546875 106.00390625 C-14.74958417 103.1347197 -23.97204383 95.11481091 -30.46875 85.40625 C-39.4453089 70.51673105 -41.69553286 53.50730152 -38.41796875 36.4296875 C-34.48904373 21.54888397 -25.78471188 10.09997332 -12.71875 2.1015625 C-7.92821798 -0.483463 -5.31628376 -1.85101578 0 0 Z " fill="#AC68E9" transform="translate(98.10546875,209.30859375)"/>
<path d="M0 0 C11.80077539 9.66265581 19.45400439 20.97215791 22.1171875 36.2109375 C23.75476573 55.34132161 20.89968673 70.41358148 9.9296875 86.3984375 C3.87709223 92.45103277 -4.30275646 99.33220109 -12.8828125 101.2109375 C-18.90383971 100.99082919 -22.40879195 98.97956267 -27.1328125 95.5859375 C-28.4462245 94.68042352 -29.76002996 93.77547999 -31.07421875 92.87109375 C-32.34380522 91.98445406 -33.61333893 91.09773883 -34.8828125 90.2109375 C-36.93481966 88.79972399 -38.99600764 87.4016669 -41.0703125 86.0234375 C-41.90949219 85.45238281 -42.74867188 84.88132812 -43.61328125 84.29296875 C-45.75290394 83.06350166 -45.75290394 83.06350166 -47.8034668 83.25512695 C-51.08266746 84.76247351 -51.83360548 87.24227739 -53.421875 90.421875 C-53.74468948 91.05790146 -54.06750397 91.69392792 -54.40010071 92.34922791 C-55.44877735 94.42197249 -56.47814814 96.50369292 -57.5078125 98.5859375 C-58.22192252 100.0048892 -58.93750304 101.4231018 -59.65454102 102.84057617 C-61.07752481 105.65559749 -62.49467368 108.47343305 -63.90771484 111.29345703 C-66.47663259 116.40636359 -69.1378316 121.46935589 -71.8203125 126.5234375 C-74.3884867 131.34813003 -74.3884867 131.34813003 -76.8828125 136.2109375 C-79.45267613 137.18435919 -81.9862893 138.04235827 -84.609375 138.84765625 C-85.78093643 139.21320366 -85.78093643 139.21320366 -86.97616577 139.58613586 C-88.63438464 140.10030994 -90.29390639 140.61029774 -91.95458984 141.11645508 C-94.48153813 141.89039038 -97.00035565 142.68751093 -99.51953125 143.48632812 C-101.13236814 143.98321546 -102.74563717 144.47870272 -104.359375 144.97265625 C-105.107565 145.212155 -105.855755 145.45165375 -106.62661743 145.69841003 C-114.88032388 148.16014653 -120.95164196 146.05219729 -128.52734375 142.5703125 C-129.33717209 142.20625305 -130.14700043 141.8421936 -130.98136902 141.46710205 C-133.556523 140.30666915 -136.1257969 139.13379353 -138.6953125 137.9609375 C-140.40915734 137.18803026 -142.12334727 136.41588774 -143.83789062 135.64453125 C-145.50551511 134.89130384 -147.17284252 134.13741828 -148.83984375 133.3828125 C-149.59747513 133.03990173 -150.35510651 132.69699097 -151.13569641 132.34368896 C-156.79481472 129.7594854 -162.30878295 126.99795227 -167.8828125 124.2109375 C-167.8828125 108.0409375 -167.8828125 91.8709375 -167.8828125 75.2109375 C-159.065625 75.05625 -159.065625 75.05625 -150.0703125 74.8984375 C-148.21817139 74.85291748 -146.36603027 74.80739746 -144.45776367 74.76049805 C-142.98878796 74.74589433 -141.51979204 74.73315338 -140.05078125 74.72265625 C-139.28882446 74.69707642 -138.52686768 74.67149658 -137.74182129 74.6451416 C-135.52807617 74.64331055 -135.52807617 74.64331055 -131.8828125 75.2109375 C-130.0012207 77.62817383 -130.0012207 77.62817383 -128.8828125 80.2109375 C-125.04103766 83.58704266 -121.23994004 83.72697386 -116.3203125 83.55859375 C-112.63414606 83.03284245 -110.59297301 81.72279359 -107.8828125 79.2109375 C-107.55152344 78.25574219 -107.22023438 77.30054688 -106.87890625 76.31640625 C-103.83643459 71.58301101 -99.58570175 70.81656598 -94.3828125 69.1484375 C-92.47124024 68.52788024 -90.56465532 67.89169287 -88.6640625 67.23828125 C-87.81908203 66.96749756 -86.97410156 66.69671387 -86.10351562 66.41772461 C-80.97945648 63.63317928 -79.1929254 56.58180105 -76.9765625 51.4375 C-76.6105896 50.5955307 -76.2446167 49.7535614 -75.86755371 48.88607788 C-74.70271923 46.20409587 -73.54271733 43.52005462 -72.3828125 40.8359375 C-71.60317902 39.03892605 -70.82323423 37.24204962 -70.04296875 35.4453125 C-66.97403506 28.37382373 -63.91529944 21.29813774 -60.8828125 14.2109375 C-56.23136109 17.17030842 -52.09404902 20.46206864 -47.9453125 24.0859375 C-47.36330078 24.58996094 -46.78128906 25.09398437 -46.18164062 25.61328125 C-45.00868095 26.62906693 -43.83985851 27.64965034 -42.67529297 28.67504883 C-41.44064205 29.7329607 -40.17681487 30.75744094 -38.89111328 31.75268555 C-34.02050819 35.59223728 -34.02050819 35.59223728 -33.3046875 38.80859375 C-33.46710938 40.02869141 -33.46710938 40.02869141 -33.6328125 41.2734375 C-33.8572016 44.52220148 -33.945652 46.04685657 -32.7578125 49.1484375 C-29.21182202 53.04902703 -25.55683265 54.38712335 -20.3828125 54.6484375 C-15.91585794 54.49024855 -13.28379367 53.19716487 -9.8828125 50.2109375 C-7.5035158 47.1827417 -7.52005804 43.96324371 -7.6328125 40.171875 C-8.14227311 36.17579333 -10.00048704 33.98631442 -12.9453125 31.3984375 C-17.52854837 29.54564002 -23.18487744 29.19921185 -27.8828125 30.9609375 C-29.8828125 31.2109375 -29.8828125 31.2109375 -32.22265625 29.7265625 C-33.07988281 28.97890625 -33.93710937 28.23125 -34.8203125 27.4609375 C-35.77421875 26.63980469 -36.728125 25.81867188 -37.7109375 24.97265625 C-38.21947266 24.52712402 -38.72800781 24.0815918 -39.25195312 23.62255859 C-40.97641583 22.12991737 -42.72943256 20.67763976 -44.4921875 19.23046875 C-45.68503188 18.24495631 -46.87774264 17.25928212 -48.0703125 16.2734375 C-48.6470874 15.80131836 -49.2238623 15.32919922 -49.81811523 14.84277344 C-51.21097103 13.67603197 -52.552338 12.44834224 -53.8828125 11.2109375 C-53.8828125 10.5509375 -53.8828125 9.8909375 -53.8828125 9.2109375 C-51.03915384 8.13026245 -48.19595523 7.0498984 -45.34130859 5.99853516 C-40.7285928 4.29859246 -36.16013151 2.51836511 -31.60546875 0.66796875 C-29.40655247 -0.19348081 -27.20733394 -1.05415924 -25.0078125 -1.9140625 C-23.96310791 -2.35290771 -22.91840332 -2.79175293 -21.84204102 -3.24389648 C-12.77646851 -6.71515966 -7.99182579 -4.95969677 0 0 Z " fill="#AC68E9" transform="translate(430.8828125,213.7890625)"/>
<path d="M0 0 C6.42169896 1.99919626 12.51395544 4.438742 18.62890625 7.23046875 C19.50401352 7.62575272 20.37912079 8.02103668 21.28074646 8.42829895 C24.04322304 9.67723573 26.8028859 10.932253 29.5625 12.1875 C31.44838417 13.04142109 33.33445024 13.89494056 35.22070312 14.74804688 C39.81627288 16.82665843 44.40797819 18.91349078 49 21 C49 31.23 49 41.46 49 52 C43 55 43 55 41 55 C38.73031996 60.20691304 38.61649233 64.56622351 40 70 C41.79132072 73.00685978 43.24682123 74.52657334 46.1875 76.375 C51.51475306 77.55883401 56.23821099 77.04957643 60.9375 74.25 C63.75959728 71.17134842 65.06868786 69.0497904 64.92578125 64.78515625 C64.58501881 61.33842796 64.09843569 58.29530707 63 55 C60.57616923 53.83046584 60.57616923 53.83046584 58 53 C57.01 52.505 57.01 52.505 56 52 C56 41.77 56 31.54 56 21 C60.66232782 19.57327673 65.32510164 18.14824142 69.98925781 16.72753906 C71.57647685 16.24351197 73.16339281 15.75848987 74.75 15.27246094 C77.0278596 14.57486644 79.30677777 13.88083316 81.5859375 13.1875 C82.29744965 12.96876221 83.00896179 12.75002441 83.74203491 12.5246582 C88.77225659 11 88.77225659 11 91 11 C94.077296 18.11033191 97.09796909 25.24286741 100.08203125 32.39282227 C101.10163347 34.81776546 102.13366323 37.23752486 103.17871094 39.65161133 C114.36957732 65.54787526 114.36957732 65.54787526 110 78 C109.75813965 78.75901611 109.5162793 79.51803223 109.26708984 80.30004883 C104.36343887 93.4531935 94.42864785 103.29814783 82.046875 109.47265625 C65.74789944 116.64002627 49.74370238 116.58123413 33 111 C20.62564393 105.87904007 11.03322171 96.93807701 5 85 C1.66456447 76.78343931 -0.13028719 69.05221128 -0.11352539 60.16845703 C-0.11367142 59.51409164 -0.11381744 58.85972626 -0.1139679 58.18553162 C-0.11327647 56.04292374 -0.10552052 53.90040501 -0.09765625 51.7578125 C-0.09578933 50.26423185 -0.09436672 48.77065058 -0.09336853 47.27706909 C-0.08956494 43.36114793 -0.07975324 39.44526432 -0.06866455 35.52935791 C-0.05840388 31.52738961 -0.05386096 27.52541519 -0.04882812 23.5234375 C-0.0381289 15.6822745 -0.0210786 7.84114193 0 0 Z " fill="#E399F0" transform="translate(263,346)"/>
<path d="M0 0 C0.0934744 8.45932722 0.16415137 16.91843177 0.20724869 25.37815094 C0.22795337 29.30811556 0.25594898 33.23772194 0.30175781 37.16748047 C0.34583809 40.97361164 0.36926504 44.77940254 0.37950897 48.58576965 C0.38679076 50.02396489 0.40100267 51.46214561 0.42292023 52.90019226 C0.66883335 69.73423812 -2.4331885 86.00386979 -14.25 98.8125 C-27.14410359 110.6129073 -43.20918741 115.60434498 -60.5 114.875 C-76.2906984 113.47499994 -89.15155436 107.54892474 -100 96 C-107.19436984 86.84228114 -111.84651034 75.75085149 -112 64 C-111.4327091 61.12357216 -110.41625842 58.54044155 -109.28125 55.84375 C-108.98569214 55.09774536 -108.69013428 54.35174072 -108.38562012 53.58312988 C-107.44200265 51.21426588 -106.47169122 48.85746642 -105.5 46.5 C-104.87841887 44.95123782 -104.25861414 43.40176146 -103.640625 41.8515625 C-101.78800057 37.22292355 -99.89797559 32.61019425 -98 28 C-97.32288669 26.35157481 -96.64580347 24.70313727 -95.96875 23.0546875 C-94.31632568 19.03487316 -92.65944148 15.01692229 -91 11 C-79.14324283 13.81753871 -67.58511915 17.22224376 -56 21 C-55.87636773 25.35984461 -55.78565092 29.71876055 -55.7253418 34.07983398 C-55.7002019 35.56308768 -55.66608408 37.04621753 -55.62280273 38.52905273 C-55.56211742 40.66160595 -55.53378884 42.79252205 -55.51171875 44.92578125 C-55.48553467 46.20880127 -55.45935059 47.49182129 -55.43237305 48.8137207 C-56 52 -56 52 -58.40551758 53.94213867 C-61 55 -61 55 -63 55 C-64.75954753 59.50884055 -65.51828487 63.16267452 -65 68 C-63.19531421 71.60937158 -61.58165967 73.58066396 -58.3125 75.9375 C-53.91719326 77.34731537 -50.43946143 77.20406057 -46 76 C-42.99314022 74.20867928 -41.47342666 72.75317877 -39.625 69.8125 C-38.50772177 64.78474796 -39.38597793 59.84206621 -41 55 C-43.37625345 53.81608777 -43.37625345 53.81608777 -46 53 C-47.485 52.505 -47.485 52.505 -49 52 C-49 41.77 -49 31.54 -49 21 C-43.11056394 18.32971386 -37.22083353 15.66009803 -31.33032227 12.9921875 C-29.32721407 12.08470381 -27.32428274 11.17682964 -25.3215332 10.26855469 C-22.44008227 8.96185851 -19.55799481 7.65657551 -16.67578125 6.3515625 C-15.78288895 5.94628326 -14.88999664 5.54100403 -13.970047 5.1234436 C-2.64512929 0 -2.64512929 0 0 0 Z " fill="#E399F0" transform="translate(249,346)"/>
<path d="M0 0 C0.99 0 1.98 0 3 0 C3.5576001 1.07761597 3.5576001 1.07761597 4.12646484 2.17700195 C5.24125787 4.33083704 6.35662579 6.48437463 7.47241211 8.63769531 C8.74694356 11.09780572 10.018182 13.5595815 11.28735352 16.02246094 C14.18941176 21.64493136 17.11069149 27.2497455 20.19140625 32.77734375 C20.65949707 33.62707764 21.12758789 34.47681152 21.60986328 35.35229492 C22.47191838 36.909162 23.34845415 38.45813047 24.24169922 39.99731445 C24.62471191 40.69429443 25.00772461 41.39127441 25.40234375 42.109375 C25.73741943 42.69686523 26.07249512 43.28435547 26.41772461 43.88964844 C28.14176309 50.13811328 24.80093828 56.67195523 22.5078125 62.40625 C22.16120575 63.28978149 21.814599 64.17331299 21.45748901 65.08361816 C20.35369913 67.89191215 19.23940514 70.69590399 18.125 73.5 C17.38344605 75.38385156 16.64255408 77.26796384 15.90234375 79.15234375 C13.0195793 86.47318327 10.13535473 93.78299668 7 101 C-5.04335854 101.87411473 -14.01130868 99.7367778 -23.3125 91.8125 C-34.62182763 80.81127905 -41.01628981 67.33945031 -41.3125 51.5 C-41.33569991 40.28155316 -38.75736776 30.35674672 -31 22 C-25.12091073 16.25967827 -18.5282617 11.93210908 -11.5625 7.625 C-9.58405572 6.38894822 -7.60615968 5.15201833 -5.62890625 3.9140625 C-4.3306189 3.1089624 -4.3306189 3.1089624 -3.00610352 2.28759766 C-1.0825706 1.15361498 -1.0825706 1.15361498 0 0 Z " fill="#CB84ED" transform="translate(125,305)"/>
<path d="M0 0 C3.18654446 0.63381261 5.48961651 1.74695521 8.23046875 3.4765625 C9.0294458 3.97905518 9.82842285 4.48154785 10.65161133 4.99926758 C11.48845459 5.53575928 12.32529785 6.07225098 13.1875 6.625 C14.04303467 7.17115967 14.89856934 7.71731934 15.7800293 8.2800293 C28.49425829 16.46673458 38.05415441 23.95163235 43.25 38.5 C46.54194047 53.76263311 43.20646922 69.13904474 34.96875 82.24609375 C28.202515 91.71076771 20.03463584 97.32178805 9 101 C6.77181559 101.06937062 4.54165476 101.08457084 2.3125 101.0625 C1.13300781 101.05347656 -0.04648437 101.04445313 -1.26171875 101.03515625 C-2.61716797 101.01775391 -2.61716797 101.01775391 -4 101 C-4.78125 99.046875 -5.5625 97.09375 -6.34375 95.140625 C-6.5888179 94.52838577 -6.8338858 93.91614655 -7.08638 93.28535461 C-8.44185532 89.89843837 -9.79484125 86.51056186 -11.14331055 83.12084961 C-13.58393168 76.99226908 -16.0343715 70.87291385 -18.61328125 64.80078125 C-19.17789062 63.4535498 -19.17789062 63.4535498 -19.75390625 62.07910156 C-20.43960014 60.44899718 -21.13805856 58.82417969 -21.8515625 57.20605469 C-22.15449219 56.4793457 -22.45742188 55.75263672 -22.76953125 55.00390625 C-23.03354736 54.39361572 -23.29756348 53.7833252 -23.56958008 53.15454102 C-24.88625365 46.56370479 -21.86641164 41.09456584 -18.88671875 35.46875 C-18.47589554 34.67400269 -18.06507233 33.87925537 -17.64179993 33.0604248 C-16.33328034 30.53516752 -15.0105064 28.01769203 -13.6875 25.5 C-12.8096341 23.80906731 -11.93267208 22.11766504 -11.05664062 20.42578125 C-7.48405472 13.54732807 -3.88467839 6.70834329 0 0 Z " fill="#CB84ED" transform="translate(384,305)"/>
<path d="M0 0 C2.375 1.0625 2.375 1.0625 4 3 C4.5625 6.5 4.5625 6.5 4 10 C1.9375 12 1.9375 12 -1 13 C-7.32142857 12.67857143 -7.32142857 12.67857143 -10 10 C-10.375 6.5625 -10.375 6.5625 -10 3 C-7.14353095 -0.40579002 -4.27097064 -0.53387133 0 0 Z " fill="#7C3DE4" transform="translate(306,181)"/>
<path d="M0 0 C2.375 1.0625 2.375 1.0625 4 3 C4.5625 6.5 4.5625 6.5 4 10 C1.9375 12 1.9375 12 -1 13 C-7.32142857 12.67857143 -7.32142857 12.67857143 -10 10 C-10.375 6.5625 -10.375 6.5625 -10 3 C-7.14353095 -0.40579002 -4.27097064 -0.53387133 0 0 Z " fill="#7B3DE4" transform="translate(212,181)"/>
<path d="M0 0 C2.375 1.125 2.375 1.125 4 3 C4.45971207 6.15231132 4.57763635 8.06936366 2.875 10.8125 C0.193838 12.51056927 -1.83285993 12.8733144 -5 13 C-7.875 12 -7.875 12 -10 10 C-10.5625 6.5 -10.5625 6.5 -10 3 C-7.14353095 -0.40579002 -4.27097064 -0.53387133 0 0 Z " fill="#E59AF0" transform="translate(200,404)"/>
<path d="M0 0 C2 1.75 2 1.75 3 4 C2.92325201 7.14666775 2.46103154 8.50481797 0.3125 10.8125 C-2.76427538 12.39246573 -4.58608123 12.56898646 -8 12 C-10.4375 9.8125 -10.4375 9.8125 -12 7 C-12 3.8125472 -11.45460573 2.52454507 -9.375 0.125 C-5.89022914 -1.52568093 -3.66368347 -0.9991864 0 0 Z " fill="#793BE4" transform="translate(363,177)"/>
<path d="M0 0 C2.0625 2.25 2.0625 2.25 3 5 C2.18795587 8.17435434 1.31819425 9.68180575 -1 12 C-4.375 12.4375 -4.375 12.4375 -8 12 C-10.5 9.8125 -10.5 9.8125 -12 7 C-12 3.8125472 -11.45460573 2.52454507 -9.375 0.125 C-5.85902796 -1.54046044 -3.68427731 -1.07178976 0 0 Z " fill="#783AE4" transform="translate(158,177)"/>
<path d="M0 0 C2.375 1.125 2.375 1.125 4 3 C4.46413104 6.18261281 4.60140853 8.08206067 2.8125 10.8125 C0.46437667 12.35092563 -1.19452533 12.79960895 -4 13 C-6.75 12.1875 -6.75 12.1875 -9 11 C-10.41441874 8.17116253 -10.31900332 6.12623255 -10 3 C-7.08783566 -0.36018962 -4.28391942 -0.53548993 0 0 Z " fill="#E49BF0" transform="translate(318,404)"/>
<path d="M0 0 C2 1.125 2 1.125 3 3 C3.38601984 6.08815875 3.47901666 8.10184376 2 10.875 C-1.21820324 12.68523932 -4.40216898 12.53967465 -8 12 C-10 10.875 -10 10.875 -11 9 C-11.38601984 5.91184125 -11.47901666 3.89815624 -10 1.125 C-6.78179676 -0.68523932 -3.59783102 -0.53967465 0 0 Z " fill="#9D59E8" transform="translate(106,250)"/>
<path d="M0 0 C2.4375 1.6875 2.4375 1.6875 4 4 C4.4375 6.5625 4.4375 6.5625 4 9 C2.36441143 11.1499246 1.50293429 11.91662587 -1.19140625 12.36328125 C-1.97386719 12.34652344 -2.75632812 12.32976562 -3.5625 12.3125 C-4.34753906 12.30863281 -5.13257813 12.30476563 -5.94140625 12.30078125 C-8 12 -8 12 -10 10 C-10.54587156 3.99541284 -10.54587156 3.99541284 -8.9375 1.0625 C-5.8347167 -0.63902633 -3.46230815 -0.42519574 0 0 Z " fill="#AA66EA" transform="translate(315,279)"/>
<path d="M0 0 C2 1.125 2 1.125 3 3 C3.38601984 6.08815875 3.47901666 8.10184376 2 10.875 C-1.21820324 12.68523932 -4.40216898 12.53967465 -8 12 C-10 10.875 -10 10.875 -11 9 C-11.38601984 5.91184125 -11.47901666 3.89815624 -10 1.125 C-6.78179676 -0.68523932 -3.59783102 -0.53967465 0 0 Z " fill="#9D59E8" transform="translate(414,250)"/>
<path d="M0 0 C2 1.125 2 1.125 3 3 C3.38601984 6.08815875 3.47901666 8.10184376 2 10.875 C-1.21820324 12.68523932 -4.40216898 12.53967465 -8 12 C-10 10.875 -10 10.875 -11 9 C-11.38601984 5.91184125 -11.47901666 3.89815624 -10 1.125 C-6.78179676 -0.68523932 -3.59783102 -0.53967465 0 0 Z " fill="#5218DF" transform="translate(201,92)"/>
<path d="M0 0 C1.9375 1.0625 1.9375 1.0625 3 3 C3.375 6.5625 3.375 6.5625 3 10 C-0.81661075 12.54440716 -3.5296109 12.57622479 -8 12 C-10.0625 10.9375 -10.0625 10.9375 -11 9 C-10.875 5.4375 -10.875 5.4375 -10 2 C-6.30513897 -0.46324069 -4.36706908 -0.38991688 0 0 Z " fill="#AA66E9" transform="translate(204,279)"/>
<path d="M0 0 C2 1.125 2 1.125 3 3 C3.38601984 6.08815875 3.47901666 8.10184376 2 10.875 C-1.21820324 12.68523932 -4.40216898 12.53967465 -8 12 C-10 10.875 -10 10.875 -11 9 C-11.38601984 5.91184125 -11.47901666 3.89815624 -10 1.125 C-6.78179676 -0.68523932 -3.59783102 -0.53967465 0 0 Z " fill="#5218DF" transform="translate(319,92)"/>
</svg>
